<svg width="34" height="34" viewBox="0 0 34 34" fill="none" xmlns="http://www.w3.org/2000/svg">
<path fill-rule="evenodd" clip-rule="evenodd" d="M26.5014 7.49831C27.0547 8.05155 27.0547 8.94853 26.5014 9.50178L9.50141 26.5018C8.94817 27.055 8.05118 27.055 7.49794 26.5018C6.9447 25.9485 6.9447 25.0515 7.49794 24.4983L24.4979 7.49831C25.0512 6.94506 25.9482 6.94506 26.5014 7.49831Z" fill="#151515"/>
<path fill-rule="evenodd" clip-rule="evenodd" d="M7.49794 7.49831C8.05118 6.94506 8.94817 6.94506 9.50141 7.49831L26.5014 24.4983C27.0547 25.0515 27.0547 25.9485 26.5014 26.5018C25.9482 27.055 25.0512 27.055 24.4979 26.5018L7.49794 9.50178C6.9447 8.94853 6.9447 8.05155 7.49794 7.49831Z" fill="#151515"/>
</svg>
