<svg width="50" height="50" viewBox="0 0 50 50" fill="none" xmlns="http://www.w3.org/2000/svg">
<path fill-rule="evenodd" clip-rule="evenodd" d="M38.9725 11.0269C39.7861 11.8405 39.7861 13.1596 38.9725 13.9732L13.9725 38.9732C13.1589 39.7868 11.8398 39.7868 11.0262 38.9732C10.2126 38.1596 10.2126 36.8405 11.0262 36.0269L36.0262 11.0269C36.8398 10.2133 38.1589 10.2133 38.9725 11.0269Z" fill="#F6F6F6"/>
<path fill-rule="evenodd" clip-rule="evenodd" d="M11.0262 11.0269C11.8398 10.2133 13.1589 10.2133 13.9725 11.0269L38.9725 36.0269C39.7861 36.8405 39.7861 38.1596 38.9725 38.9732C38.1589 39.7868 36.8398 39.7868 36.0262 38.9732L11.0262 13.9732C10.2126 13.1596 10.2126 11.8405 11.0262 11.0269Z" fill="#F6F6F6"/>
</svg>
